<svg width="200" height="200" viewBox="0 0 200 200" fill="none" xmlns="http://www.w3.org/2000/svg">
<path d="M82.2602 124.464H50.1349C47.2434 124.464 44.8723 122.122 44.8723 119.201V89.4473C44.8723 86.5557 47.2145 84.1846 50.1349 84.1846H82.2602C85.1518 84.1846 87.5229 86.5268 87.5229 89.4473V119.201C87.5229 122.122 85.1807 124.464 82.2602 124.464Z" fill="#A4D169"/>
<path d="M150.414 124.464H118.289C115.398 124.464 113.026 122.122 113.026 119.201V89.4473C113.026 86.5557 115.369 84.1846 118.289 84.1846H150.414C153.306 84.1846 155.677 86.5268 155.677 89.4473V119.201C155.677 122.122 153.335 124.464 150.414 124.464Z" fill="#FFBA36"/>
<path d="M40.3615 84.1846H159.61C169.325 84.1846 174.039 72.3292 166.954 65.6496L106.752 8.91711C102.588 4.98459 96.082 5.04242 91.9759 9.00386L32.9301 65.7364C25.9904 72.4159 30.7036 84.1846 40.3615 84.1846Z" fill="#FF624F"/>
<path d="M179.619 146.585V129.871C179.619 126.893 177.19 124.464 174.212 124.464H25.759C22.7807 124.464 20.3518 126.893 20.3518 129.871V146.585C22.3759 150.401 24.6313 154.045 27.147 157.486C37.6145 171.886 52.2458 183.047 69.2771 189.235C73.9904 176.483 86.2217 167.375 100.622 167.375C114.877 167.375 126.993 176.281 131.793 188.83C152.439 181.023 169.412 165.9 179.619 146.585Z" fill="#5EC7F6"/>
</svg>
